PathFileType	4	(X/Y/Z)	SUBJ11_0_static_RCNL2025.trc
DataRate	CameraRate	NumFrames	NumMarkers	Units	OrigDataRate	OrigDataStartFrame	OrigNumFrames
100	100	6	25	mm	100	46	120
Frame#	Time	R_Shoulder			L_Shoulder			C7			J_Notch			R_Elbow			L_Elbow			R_Wrist			L_Wrist			R_Asis			L_Asis			Sacral			Thoracic			Sternum			R_Thigh_Lateral			R_Knee_Lateral			R_Shank_Lateral			R_Ankle_Lateral			R_Heel			R_Toe			L_Thigh_Lateral			L_Knee_Lateral			L_Shank_Lateral			L_Ankle_Lateral			L_Heel			L_Toe		
		X1	Y1	Z1	X2	Y2	Z2	X3	Y3	Z3	X4	Y4	Z4	X5	Y5	Z5	X6	Y6	Z6	X7	Y7	Z7	X8	Y8	Z8	X9	Y9	Z9	X10	Y10	Z10	X11	Y11	Z11	X12	Y12	Z12	X13	Y13	Z13	X14	Y14	Z14	X15	Y15	Z15	X16	Y16	Z16	X17	Y17	Z17	X18	Y18	Z18	X19	Y19	Z19	X20	Y20	Z20	X21	Y21	Z21	X22	Y22	Z22	X23	Y23	Z23	X24	Y24	Z24	X25	Y25	Z25
46	0.45000000	-333.481110	1317.286499	16.770271	-335.651215	1359.769287	-419.898163	-401.111908	1423.283813	-208.851959	-268.456482	1321.734375	-214.819641	-390.694305	1052.708496	127.210060	-337.211639	1077.157837	-544.596985	-324.681641	801.541077	144.014450	-263.741753	825.650024	-571.482025	-255.714142	905.305786	-106.511482	-275.753357	917.985840	-356.512848	-447.734283	947.438293	-206.833984	-469.108124	1204.374268	-208.119904	-218.842728	1167.396240	-228.583237	-317.659546	576.372986	-7.096164	-372.730408	460.928986	-83.531807	-388.983185	246.388153	-20.169424	-409.416351	64.513916	-81.926743	-451.097626	54.518383	-136.645386	-272.095551	43.295380	-97.050491	-369.567017	584.955627	-426.187317	-366.710144	478.096619	-373.940521	-412.438446	239.952438	-415.805084	-409.047485	64.085922	-361.256470	-452.868378	62.294788	-298.859955	-248.993484	64.450554	-348.883789
47	0.46000000	-333.461975	1317.283569	16.707184	-335.818115	1359.673462	-419.950562	-401.101105	1423.289307	-208.865021	-268.486267	1321.806519	-214.949356	-390.770599	1052.707397	127.145981	-337.310944	1077.115234	-544.789917	-324.403076	801.354187	143.798733	-263.851685	825.615540	-571.420807	-255.745407	905.349182	-106.543762	-275.310120	917.762756	-356.259094	-447.716064	947.426147	-206.862411	-469.166351	1204.310669	-208.091080	-218.819138	1167.433960	-228.573853	-317.707275	576.398804	-6.940247	-372.720215	460.818359	-83.543411	-389.098297	246.437485	-20.067711	-409.580383	64.675690	-81.845032	-451.083038	54.509548	-136.670883	-271.960541	43.089195	-97.108978	-369.582214	585.002502	-426.194031	-366.868713	478.248596	-373.872223	-412.453644	239.964828	-415.783020	-409.066864	64.124359	-361.319427	-452.891876	62.355370	-298.745911	-249.015381	64.457932	-348.900848
48	0.47000000	-333.644379	1317.252930	16.823689	-335.850342	1359.646606	-419.971039	-401.175201	1423.275024	-208.956802	-268.495209	1321.844238	-214.813477	-390.812775	1052.654907	126.925774	-337.346985	1077.027954	-544.627686	-324.735107	801.550049	143.597294	-263.906845	825.461517	-571.332123	-255.635696	905.299133	-106.423386	-275.161346	918.119324	-356.297089	-447.778076	947.438416	-206.933777	-469.185669	1204.234863	-208.062485	-218.805206	1167.405396	-228.569534	-317.753937	576.362000	-7.060987	-372.734924	460.836945	-83.543167	-389.343872	246.531403	-19.973600	-409.241119	64.209106	-82.110069	-450.935455	54.462696	-136.571579	-271.581085	42.601646	-97.252312	-369.644989	585.030640	-426.216736	-366.905640	478.261536	-373.843842	-412.441010	239.954773	-415.805573	-409.092346	64.069321	-361.274994	-452.903870	62.368206	-298.726868	-249.099365	64.433624	-348.789734
49	0.48000000	-333.697906	1317.273193	16.794582	-335.848755	1359.639893	-420.076385	-401.182159	1423.193970	-209.038376	-268.231689	1321.653320	-214.795593	-390.966034	1052.520508	126.838852	-337.299866	1076.889038	-544.625244	-324.854889	801.497162	143.464935	-263.956985	825.380737	-571.219452	-255.458878	905.324585	-106.322388	-275.174438	918.213196	-356.328003	-447.801147	947.451782	-206.908478	-469.163818	1204.292847	-208.089783	-218.812805	1167.394165	-228.571808	-317.718658	576.140808	-7.200205	-372.727478	460.751495	-83.523857	-389.402374	246.565094	-19.954725	-409.381470	64.461403	-81.961533	-451.035095	54.496815	-136.703857	-271.702057	42.957336	-97.182487	-369.565765	584.949097	-426.122070	-366.993134	478.165436	-373.743439	-412.489655	239.937012	-415.771759	-409.110596	64.056961	-361.268402	-452.817657	62.252464	-298.813934	-249.109772	64.501991	-348.818787
50	0.49000000	-333.698242	1317.250366	16.785278	-335.915833	1359.556885	-420.058746	-401.312653	1423.144165	-209.046371	-267.978790	1321.656616	-214.740524	-390.934570	1052.336548	126.614006	-337.391296	1076.863403	-544.563049	-324.858704	801.380524	143.251194	-263.968575	825.312408	-571.190552	-255.301346	905.334290	-106.279465	-274.924347	917.841736	-356.111816	-447.801270	947.436646	-206.906128	-469.099396	1204.216675	-208.114853	-218.793121	1167.422485	-228.527298	-317.793274	576.207947	-7.079735	-372.747284	460.744629	-83.563255	-389.143219	246.267410	-20.114101	-409.531281	64.599312	-81.883980	-451.082581	54.449039	-136.688034	-272.058716	43.495918	-97.038002	-369.429810	584.944580	-426.199738	-366.940704	478.230621	-373.829346	-412.450348	239.926193	-415.801086	-409.417572	64.769493	-362.153931	-452.882782	62.326031	-298.748505	-249.139938	64.373901	-348.827881
51	0.50000000	-333.752625	1317.302246	16.673674	-335.944305	1359.527954	-420.089905	-401.195496	1423.193359	-209.013443	-267.736694	1321.702026	-214.645996	-390.936981	1052.250854	126.357712	-337.333771	1076.790039	-544.473633	-324.797546	801.392273	142.919056	-264.099129	825.235046	-571.225098	-255.226807	905.350403	-106.263924	-275.021210	918.105835	-356.210938	-447.799683	947.435120	-206.907196	-469.080170	1204.230835	-208.135086	-218.748001	1167.438232	-228.507248	-317.810120	576.273865	-7.034795	-372.769562	460.679230	-83.543533	-388.944946	246.153946	-20.121067	-409.263580	64.164009	-81.993744	-451.116913	54.436314	-136.613754	-272.255463	43.681877	-96.956619	-369.471558	584.994751	-426.187897	-366.781403	478.198700	-373.929810	-412.407379	239.877914	-415.822113	-409.132507	64.140739	-361.384155	-452.921661	62.286404	-298.703552	-249.245148	64.256096	-348.939789
